<svg width="110" height="27" viewBox="0 0 110 27" fill="none" xmlns="http://www.w3.org/2000/svg">
<path d="M4.30961 21.2889L5.56127 17.2379H10.5182L11.692 21.2889H16.2833L11.718 5.83851C11.4572 4.93166 10.8828 4.50381 9.89183 4.50381H3.39768V5.96371H3.94506C4.62337 5.96371 4.98905 6.21628 4.98905 6.71816C4.98905 7.04584 4.91005 7.32237 4.64933 8.0779L0.0828857 21.2889H4.30961ZM9.89183 14.4945H6.21362L8.16953 8.32829L9.89183 14.4945ZM21.5732 21.2889V5.78735C21.5732 4.98282 21.0788 4.50381 20.2685 4.50381H16.2517V5.96371H16.5124C17.1907 5.96371 17.4774 6.24023 17.4774 6.89452V21.2878H21.5732V21.2889ZM28.5312 21.2889V5.78735C28.5312 4.98282 28.0346 4.50381 27.2287 4.50381H23.2097V5.96371H23.4704C24.1487 5.96371 24.4354 6.24023 24.4354 6.89452V21.2878H28.5312V21.2889ZM35.5953 21.2889V9.98851C35.5953 9.18507 35.0998 8.70715 34.2917 8.70715H30.3257V10.1409H30.5616C31.2399 10.1409 31.5266 10.4425 31.5266 11.0968V21.2878H35.5953V21.2889ZM35.6732 6.03883C35.6732 4.90662 34.8132 4.22729 33.3256 4.22729C31.864 4.22729 30.9781 4.90662 30.9781 6.03883C30.9781 7.17104 31.864 7.85146 33.3256 7.85146C34.8132 7.85146 35.6732 7.17104 35.6732 6.03883ZM39.0579 12.3041C40.4146 11.6759 41.9021 11.3243 43.0759 11.3243C44.1706 11.3243 44.5623 11.7021 44.5623 12.8071V13.0847C42.893 13.3351 42.3716 13.4374 41.4326 13.6388C40.9066 13.7561 40.3916 13.9156 39.8931 14.1156C38.2498 14.7449 37.4666 15.9783 37.4666 17.8639C37.4666 20.2535 38.5365 21.413 40.7543 21.413C41.5624 21.413 42.2937 21.2638 42.9449 21.0112C43.5194 20.7609 43.858 20.5584 44.6932 19.9291V20.1055C44.6932 20.8861 45.1108 21.2878 45.9189 21.2878H49.649V19.9291H49.4673C48.7619 19.9291 48.5012 19.6276 48.5012 18.8209V12.8332C48.5012 9.63687 47.3534 8.5297 44.0397 8.5297C42.972 8.5297 41.9292 8.65489 40.91 8.88134C39.8931 9.10778 39.3706 9.30918 38.1449 9.88944L39.0579 12.3041ZM44.5623 15.25V17.6908C43.884 18.3691 43.0499 18.773 42.3445 18.773C41.6154 18.773 41.3547 18.4202 41.3547 17.4883C41.3547 16.5564 41.5624 16.1297 42.2937 15.8532C42.8411 15.6267 43.5454 15.4264 44.5623 15.25ZM55.5913 21.2889V12.7842C56.2696 12.0548 56.9738 11.7271 57.7819 11.7271C58.6431 11.7271 58.8508 12.0548 58.8508 13.3144V21.2899H62.9195V12.7352C62.9195 10.7473 62.7637 10.1191 62.1102 9.43873C61.5629 8.85956 60.7288 8.55582 59.6577 8.55582C58.0686 8.55582 56.9456 9.03484 55.4321 10.3935V9.89053C55.4321 9.10887 55.0168 8.70715 54.1793 8.70715H50.3194V10.1409H50.5542C51.2336 10.1409 51.5203 10.4425 51.5203 11.0968V21.2878H55.5913V21.2889ZM74.9958 18.6456H69.3075L74.7351 11.2993V8.70715H66.2309C65.2636 8.70715 64.8223 9.13391 64.8223 10.0658V12.3542H66.3358V12.1288C66.3358 11.5507 66.6485 11.2731 67.2997 11.2731H70.2229L64.7445 18.6967V21.2889H74.9981V18.6456H74.9958ZM109.059 13.4875C109.059 5.76231 103.084 0 95.0731 0C87.0654 0 81.0645 5.76231 81.0645 13.4875C81.0645 21.2377 87.0654 27 95.0731 27C103.084 27 109.059 21.2377 109.059 13.4875ZM106.293 13.4875C106.293 19.854 101.544 24.4852 95.0731 24.4852C88.5778 24.4852 83.8567 19.854 83.8567 13.4875C83.8567 7.14709 88.5789 2.517 95.0731 2.517C101.544 2.517 106.293 7.14709 106.293 13.4875ZM91.4479 20.6084V8.4045H89.1771C88.0552 8.4045 87.6106 8.83235 87.6106 9.91448V20.6074H91.4479V20.6084ZM98.6982 20.6084H102.508V9.91448C102.508 8.83235 102.091 8.4045 100.942 8.4045H98.6982V20.6084ZM96.9782 20.6084V6.44272C96.9782 5.30942 96.5866 4.93166 95.4117 4.93166H91.9953V6.49171H92.2041L92.5698 6.51566C92.7007 6.51566 92.8294 6.59187 92.9354 6.69312C93.0923 6.86839 93.1431 7.04476 93.1431 7.42252V20.6084H96.9782Z" fill="#1A1A1A"/>
</svg>
