<svg width="108" height="26" viewBox="0 0 108 26" fill="none" xmlns="http://www.w3.org/2000/svg">
<path fill-rule="evenodd" clip-rule="evenodd" d="M37.1733 21.9441C34.5849 21.9441 33.1511 19.7667 33.1511 17.4354C33.1511 15.1022 34.6248 12.9638 37.1733 12.9638C39.8016 12.9638 41.2747 15.0244 41.2747 17.4354C41.2747 19.8452 39.801 21.9441 37.1733 21.9441ZM43.584 11.2135H41.1551V13.2741H41.0753C40.0796 11.7963 38.5666 10.8637 36.6948 10.8637C32.991 10.8637 30.7216 13.9354 30.7216 17.3563C30.7216 20.894 32.9118 24.0436 36.7745 24.0436C38.6059 24.0436 40.1194 23.1109 41.0753 21.6721H41.1551V23.6153H43.584V11.2135ZM48.8406 13.2351H48.9204C49.5179 11.7969 50.7523 10.8637 52.3849 10.8637C53.1015 10.8637 53.7788 11.0967 54.3758 11.4471L53.2616 13.6245C52.8236 13.2747 52.3456 13.1189 51.788 13.1189C49.1596 13.1189 48.8412 15.5293 48.8412 17.512V23.6153H46.3718V11.2135H48.8406V13.2351ZM64.5308 14.7512C63.5743 13.6634 62.3798 13.08 60.9073 13.08C58.5177 13.08 56.6464 15.1406 56.6464 17.4354C56.6464 19.9626 58.4772 21.8285 61.0668 21.8285C62.4601 21.8285 63.6142 21.1672 64.5308 20.195V23.2271C63.4154 23.8112 62.3006 24.0436 61.0257 24.0436C57.282 24.0436 54.2163 21.2438 54.2163 17.512C54.2163 13.7018 57.2428 10.8637 61.1846 10.8637C62.3 10.8637 63.5743 11.1356 64.5301 11.6801V14.7512H64.5308ZM68.5131 16.0349C68.7923 14.2475 70.1862 12.9249 72.0973 12.9249C74.0483 12.9249 75.2833 14.169 75.6011 16.0349H68.5131ZM78.0306 17.8235V17.4354C78.0306 13.7802 76.1588 10.8643 72.0967 10.8643C67.9947 10.8643 65.924 13.7024 65.924 17.5126C65.924 21.1678 68.2738 24.0442 72.1359 24.0442C74.6053 24.0442 76.8355 22.8007 78.03 20.6622L75.9986 19.5343C75.0422 21.012 74.0464 21.9441 72.1752 21.9441C69.8659 21.9441 68.3922 19.9224 68.353 17.8235H78.0306ZM80.2203 0.638672H82.6897V23.6159H80.2203V0.638672ZM91.2513 13.1189C93.6803 13.1189 95.5914 15.1022 95.5914 17.4354C95.5914 19.7673 93.6803 21.75 91.2513 21.75C88.8224 21.75 86.9101 19.7667 86.9101 17.4354C86.9101 15.1022 88.8224 13.1189 91.2513 13.1189ZM91.2513 10.8637C87.4684 10.8637 84.4812 13.7018 84.4812 17.4348C84.4812 21.1666 87.4684 24.0436 91.2513 24.0436C95.0343 24.0436 98.0203 21.1666 98.0203 17.4348C98.0203 13.7018 95.0343 10.8637 91.2513 10.8637ZM102.322 13.2351H102.401C103 11.7969 104.233 10.8637 105.865 10.8637C106.582 10.8637 107.3 11.0967 107.897 11.4471L106.783 13.6245C106.344 13.2747 105.866 13.1189 105.269 13.1189C102.64 13.1189 102.322 15.5293 102.322 17.512V23.6153H99.8922V11.2135H102.322V13.2351Z" fill="#1A1A1A"/>
<path fill-rule="evenodd" clip-rule="evenodd" d="M23.3948 8.99742C19.2928 6.0814 13.6386 6.74212 10.4128 10.4363C6.03224 8.18096 1.97014 7.71432 0.576839 9.54193C-1.17537 11.7972 1.77136 16.8128 7.18689 20.8562C5.55431 18.5619 5.51444 15.4524 7.3464 13.0803C9.61642 10.1254 13.9172 9.54193 16.9835 11.7194C20.01 13.9363 20.6469 18.0953 18.3775 21.0509C16.7842 23.0725 14.2362 24.0064 11.8067 23.6165V23.656C11.8864 23.6943 11.9263 23.7333 11.9662 23.7716C16.1872 26.805 22.1604 25.9886 25.3065 21.9057C28.452 17.8233 27.6158 12.0303 23.3948 8.99742Z" fill="#1A1A1A"/>
</svg>
