<svg width="45" height="45" viewBox="0 0 45 45" fill="none" xmlns="http://www.w3.org/2000/svg">
<rect width="45" height="45" rx="22.5" fill="white"/>
<path d="M29.7092 28.4988C29.7092 28.8783 29.4012 29.1863 29.0217 29.1863C28.6422 29.1863 28.3342 28.8783 28.3342 28.4988L28.3342 16.408L14.9233 29.8188C14.7941 29.949 14.6208 30.0205 14.4375 30.0205C14.2542 30.0205 14.0809 29.949 13.9517 29.8188C13.8215 29.6896 13.75 29.5163 13.75 29.333C13.75 29.1497 13.8215 28.9764 13.9517 28.8472L27.3625 15.4363L15.2717 15.4363C14.8922 15.4363 14.5842 15.1283 14.5842 14.7488C14.5842 14.3693 14.8922 14.0613 15.2717 14.0613L29.0217 14.0613C29.1014 14.0613 29.1812 14.076 29.2582 14.1035C29.2637 14.1053 29.2683 14.1072 29.2728 14.109C29.4516 14.1823 29.5882 14.3189 29.6569 14.4867C29.6597 14.494 29.6633 14.5023 29.6661 14.5105C29.6945 14.5857 29.7092 14.6663 29.7092 14.7479L29.7092 28.4988Z" fill="black"/>
</svg>
