<svg width="20" height="9" viewBox="0 0 20 9" fill="none" xmlns="http://www.w3.org/2000/svg">
<path d="M20 6.94401C20.0001 7.13763 19.955 7.32917 19.8675 7.50664C19.78 7.6841 19.6521 7.84365 19.4916 7.9753C19.1059 8.28258 18.6003 8.4451 18.0816 8.42853H1.85529C0.630798 8.42853 0 7.68299 0 6.94729C0.00231247 6.74666 0.0512749 6.54859 0.143835 6.36544C0.236394 6.18228 0.37057 6.01795 0.538004 5.88269C0.705438 5.74743 0.902545 5.64413 1.11705 5.57923C1.33155 5.51434 1.55885 5.48923 1.78479 5.50547H18.1967C18.4225 5.49215 18.6491 5.51908 18.863 5.58466C19.0769 5.65025 19.2738 5.75316 19.4419 5.8873C19.6101 6.02144 19.7461 6.18407 19.842 6.36558C19.9378 6.54709 19.9916 6.74379 20 6.94401Z" fill="#237FBD"/>
<path d="M7 2.06218C7.00008 2.25579 6.95496 2.44734 6.86749 2.6248C6.78001 2.80226 6.65206 2.96182 6.49165 3.09346C6.10588 3.40075 5.60028 3.56327 5.08163 3.5467H1.85529C0.630798 3.5467 0 2.80115 0 2.06546C0.00231247 1.86482 0.0512749 1.66676 0.143835 1.4836C0.236394 1.30044 0.37057 1.13611 0.538004 1.00085C0.705438 0.865593 0.902545 0.762297 1.11705 0.697399C1.33155 0.632501 1.55885 0.60739 1.78479 0.623632H5.19666C5.42253 0.610311 5.64911 0.63724 5.86301 0.702826C6.07691 0.768413 6.27376 0.871324 6.44191 1.00546C6.61007 1.1396 6.7461 1.30224 6.84197 1.48375C6.93783 1.66526 6.99157 1.86195 7 2.06218Z" fill="#237FBD"/>
</svg>
