<svg width="276" height="204" viewBox="0 0 276 204" fill="none" xmlns="http://www.w3.org/2000/svg">
<rect width="276" height="204" fill="black"/>
<path d="M56 92.6545C56.228 91.9269 56.4228 91.1889 56.6879 90.4743C58.6306 85.2561 62.3203 81.6496 67.6351 79.5331C70.7158 78.3062 73.9067 78.1096 77.1832 78.3999C80.0214 78.6518 82.7591 79.2886 85.4346 80.2111C85.7717 80.3272 85.9071 80.4686 85.9051 80.8339C85.8857 83.487 85.8944 86.1401 85.8944 88.7942V89.2419C85.4687 89.3121 85.075 89.4086 84.6795 89.4226C84.5499 89.4226 84.3716 89.2447 84.2829 89.108C83.2775 87.5646 82.3256 85.9875 81.2763 84.4722C80.3848 83.1836 79.3608 81.9727 77.9782 81.1336C75.2317 79.4647 72.3721 79.3973 69.5291 80.8526C67.185 82.0495 65.8511 84.0836 64.9684 86.4202C64.2765 88.2745 63.9209 90.2293 63.9172 92.1994C63.8918 95.6645 63.8957 99.1296 64.0058 102.595C64.0867 105.091 64.6235 107.522 65.9759 109.707C67.8338 112.713 70.6963 113.828 74.2252 113.791C77.5515 113.756 79.9074 112.139 81.7361 109.682C82.9706 108.025 84.0657 106.272 85.191 104.544C85.3858 104.249 85.5388 104.137 85.9003 104.187C86.7947 104.309 86.7976 104.293 86.7976 105.149C86.7976 107.709 86.7976 110.268 86.7976 112.829C86.7976 113.118 86.7635 113.305 86.4167 113.415C82.5282 114.656 78.5502 115.39 74.4454 115.392C65.5686 115.392 58.0645 109.613 56.115 101.29C56.0849 101.187 56.0464 101.087 56 100.989V92.6545Z" fill="white"/>
<path d="M219 114.756C218.822 114.765 218.644 114.782 218.466 114.782H196.818V113.164H204.448L193.486 87.9114L188.944 96.473L187.359 95.6395C187.994 94.422 188.606 93.2402 189.224 92.063C191.461 87.8094 193.697 83.5551 195.932 79.3002C196.113 78.9528 196.327 78.846 196.711 78.8545C197.751 78.8751 197.751 78.8601 198.136 79.746C202.912 90.7088 207.686 101.672 212.459 112.637C212.636 113.045 212.848 113.18 213.303 113.174C215.202 113.148 217.103 113.163 219.001 113.164L219 114.756Z" fill="white"/>
<path d="M122.73 80.4802H117.335V78.8994C117.482 78.8872 117.621 78.8638 117.762 78.8638C123.9 78.8741 130.038 78.8488 136.176 78.9153C139.142 78.9472 142.06 79.3761 144.802 80.5608C147.961 81.9271 149.789 84.2497 150.217 87.5668C150.452 89.4042 150.476 91.2342 150.03 93.0538C149.293 96.0563 147.381 98.096 144.489 99.3284C142.45 100.198 140.291 100.651 138.081 100.779C135.766 100.913 133.443 100.918 131.124 100.978C130.915 100.983 130.705 100.978 130.455 100.978V113.136H138.48V114.822H137.966C125.27 114.822 112.574 114.825 99.8766 114.831C99.4109 114.831 99.2326 114.718 99.2832 114.262C99.3203 113.925 99.2901 113.58 99.2901 113.168H107.036L96.0924 87.8056L91.5376 96.4945L89.9504 95.6667C90.0186 95.5112 90.0703 95.3707 90.1395 95.2377C91.7418 92.1785 93.3462 89.1208 94.9525 86.0646C96.145 83.7983 97.3502 81.5394 98.5311 79.2674C98.6938 78.9556 98.8818 78.8507 99.2384 78.8554C100.356 78.8722 100.354 78.8554 100.787 79.8528C105.541 90.7912 110.293 101.73 115.043 112.67C115.193 113.016 115.372 113.161 115.786 113.157C117.929 113.134 120.073 113.147 122.216 113.145C122.375 113.145 122.534 113.132 122.728 113.122L122.73 80.4802ZM130.441 99.452C132.905 99.3659 135.32 99.3163 137.728 99.1711C138.368 99.1336 139.027 98.8761 139.614 98.5979C141.426 97.742 142.189 96.163 142.409 94.363C142.779 91.3334 142.715 88.2888 142.409 85.2555C142.299 84.1598 141.946 83.1165 141.199 82.2418C140.183 81.0515 138.764 80.6394 137.266 80.5739C135.062 80.4802 132.853 80.5074 130.646 80.4802C130.575 80.4874 130.505 80.5012 130.437 80.5214L130.441 99.452Z" fill="white"/>
<path d="M174.912 81.0861C174.832 81.0524 174.803 81.0299 174.775 81.0299C171.868 81.0299 168.962 80.9897 166.057 81.0487C164.716 81.0758 163.644 81.8035 162.696 82.6688C161.02 84.201 159.798 86.0618 158.598 87.9358C158.063 88.7702 157.565 89.628 157.074 90.4878C156.944 90.7144 156.811 90.7968 156.544 90.7687C155.555 90.6479 155.554 90.6554 155.554 89.6898C155.554 86.4283 155.554 83.1664 155.554 79.9043V79.3096H183.915C183.936 79.9651 183.999 80.5542 183.612 81.162C176.925 91.6509 170.252 102.149 163.592 112.658C163.509 112.789 163.434 112.925 163.32 113.116C163.508 113.131 163.643 113.15 163.778 113.15C166.896 113.157 170.013 113.194 173.131 113.15C174.696 113.13 176.249 112.928 177.533 111.917C178.612 111.065 179.457 110.009 180.154 108.862C181.158 107.207 182.102 105.519 183.045 103.829C183.247 103.467 183.412 103.238 183.879 103.412C184.099 103.493 184.349 103.498 184.599 103.539V114.756H154.053C154.053 114.134 153.982 113.565 154.367 112.971C161.142 102.497 167.904 92.0136 174.652 81.5216C174.736 81.3877 174.812 81.2528 174.912 81.0861Z" fill="white"/>
</svg>
